<svg version="1.1" width="800" height="800" viewBox="-186.48 -308.48 364.8 544.8" xmlns="http://www.w3.org/2000/svg">
<polygon id="r0" fill="rgb(25,150,50)" fill-opacity="0.500000" points="-100.000000,200.000000 100.000000,200.000000 100.000000,-200.000000 -100.000000,-200.000000 " stroke="rgb(25,150,50)" stroke-opacity="1.000000" stroke-width="0.500000">
<animate attributeName="fill" begin="mouseover" dur="0.1s" fill="freeze" from="rgb(25,150,50)" to="rgb(0,255,0)"/>
<animate attributeName="fill" begin="mouseout" dur="0.1s" fill="freeze" from="rgb(0,255,0)" to="rgb(25,150,50)"/>
</polygon>
<g>
<line stroke="rgb(0,0,0)" stroke-opacity="1.000000" stroke-width="0.500000" x1="-150.000000" x2="150.000000" y1="-0.000000" y2="-0.000000"/>
<line stroke="rgb(0,0,0)" stroke-opacity="1.000000" stroke-width="0.500000" x1="0.000000" x2="0.000000" y1="250.000000" y2="-250.000000"/>
<g>
<polygon id="pos_x_head" fill="rgb(0,0,0)" fill-opacity="1.000000" points="-4.000000,-4.000000 4.000000,0.000000 -4.000000,4.000000 -1.000000,0.000000 " stroke="rgb(0,0,0)" stroke-opacity="1.000000" stroke-width="0.500000" transform="translate(150,-0)"/>
</g>
<g>
<polygon id="pos_y_head" fill="rgb(0,0,0)" fill-opacity="1.000000" points="-4.000000,-4.000000 4.000000,0.000000 -4.000000,4.000000 -1.000000,0.000000 " stroke="rgb(0,0,0)" stroke-opacity="1.000000" stroke-width="0.500000" transform="translate(0,-250) rotate(-90)"/>
</g>
<text id="t1" fill="rgb(0,0,0)" font-family="Arial" font-size="12" x="158.000000" y="-4.000000">
x</text>
<text id="t1" fill="rgb(0,0,0)" font-family="Arial" font-size="12" x="-4.000000" y="258.000000">
y</text>
</g>
<g>
<line stroke="rgb(0,0,0)" stroke-opacity="1.000000" stroke-width="0.500000" x1="110.000000" x2="110.000000" y1="-0.000000" y2="-200.000000"/>
<g>
<line stroke="rgb(0,0,0)" stroke-opacity="1.000000" stroke-width="0.500000" transform="translate(110,-200) rotate(270)" x1="0.000000" x2="0.000000" y1="8.000000" y2="-8.000000"/>
<polygon id="x0" fill="rgb(0,0,0)" fill-opacity="1.000000" points="-8.000000,-4.000000 0.000000,0.000000 -8.000000,4.000000 0.000000,0.000000 " stroke="rgb(0,0,0)" stroke-opacity="1.000000" stroke-width="0.500000" transform="translate(110,-200) rotate(270)"/>
</g>
<g>
<line stroke="rgb(0,0,0)" stroke-opacity="1.000000" stroke-width="0.500000" transform="translate(110,-0) rotate(90)" x1="0.000000" x2="0.000000" y1="8.000000" y2="-8.000000"/>
<polygon id="x0" fill="rgb(0,0,0)" fill-opacity="1.000000" points="-8.000000,-4.000000 0.000000,0.000000 -8.000000,4.000000 0.000000,0.000000 " stroke="rgb(0,0,0)" stroke-opacity="1.000000" stroke-width="0.500000" transform="translate(110,-0) rotate(90)"/>
</g>
<text id="t1" fill="rgb(0,0,0)" font-family="Arial" font-size="12" x="118.000000" y="-100.000000">
hy</text>
</g>
<g>
<line stroke="rgb(0,0,0)" stroke-opacity="1.000000" stroke-width="0.500000" x1="0.000000" x2="100.000000" y1="-210.000000" y2="-210.000000"/>
<g>
<line stroke="rgb(0,0,0)" stroke-opacity="1.000000" stroke-width="0.500000" transform="translate(100,-210) rotate(360)" x1="0.000000" x2="0.000000" y1="8.000000" y2="-8.000000"/>
<polygon id="x0" fill="rgb(0,0,0)" fill-opacity="1.000000" points="-8.000000,-4.000000 0.000000,0.000000 -8.000000,4.000000 0.000000,0.000000 " stroke="rgb(0,0,0)" stroke-opacity="1.000000" stroke-width="0.500000" transform="translate(100,-210) rotate(360)"/>
</g>
<g>
<line stroke="rgb(0,0,0)" stroke-opacity="1.000000" stroke-width="0.500000" transform="translate(0,-210) rotate(180)" x1="0.000000" x2="0.000000" y1="8.000000" y2="-8.000000"/>
<polygon id="x0" fill="rgb(0,0,0)" fill-opacity="1.000000" points="-8.000000,-4.000000 0.000000,0.000000 -8.000000,4.000000 0.000000,0.000000 " stroke="rgb(0,0,0)" stroke-opacity="1.000000" stroke-width="0.500000" transform="translate(0,-210) rotate(180)"/>
</g>
<text id="t1" fill="rgb(0,0,0)" font-family="Arial" font-size="12" x="50.000000" y="-218.000000">
hx</text>
</g>
</svg>
